<?xml version="1.0" standalone="no"?>
<!DOCTYPE svg PUBLIC "-//W3C//DTD SVG 20010904//EN"
 "http://www.w3.org/TR/2001/REC-SVG-20010904/DTD/svg10.dtd">
<svg version="1.0" xmlns="http://www.w3.org/2000/svg"
 width="512.000000pt" height="512.000000pt" viewBox="0 0 512.000000 512.000000"
 preserveAspectRatio="xMidYMid meet">

<g transform="translate(0.000000,512.000000) scale(0.100000,-0.100000)"
fill="#000000" stroke="none">
<path d="M423 5106 c-189 -47 -339 -195 -388 -383 -13 -48 -15 -166 -15 -724
0 -625 1 -671 19 -728 25 -82 60 -138 118 -192 115 -107 187 -129 436 -129 98
0 177 -3 175 -7 -44 -85 -52 -114 -56 -193 -5 -104 18 -175 84 -255 l43 -54
-37 -11 c-182 -58 -512 -319 -512 -405 0 -36 37 -75 72 -75 24 0 48 17 126 93
175 169 334 254 562 303 98 21 885 32 999 15 129 -20 223 -88 278 -199 l28
-57 0 -420 0 -420 -28 -56 c-32 -67 -109 -142 -175 -172 -40 -18 -66 -22 -165
-22 l-117 0 -33 75 c-99 226 -300 396 -542 455 -90 22 -257 23 -346 2 -250
-60 -454 -229 -550 -457 -15 -36 -34 -66 -41 -68 -23 -5 -106 55 -138 99 -44
61 -53 108 -47 229 7 116 34 235 78 342 35 85 36 108 6 136 -31 29 -78 29
-104 0 -57 -64 -122 -303 -130 -479 -5 -110 -3 -135 15 -196 37 -120 133 -223
245 -265 l57 -21 0 -97 c0 -569 616 -944 1128 -686 154 78 271 195 348 351 56
115 74 184 81 318 l6 107 622 0 622 0 6 -107 c7 -134 25 -203 82 -318 78 -159
192 -273 350 -350 110 -53 183 -74 297 -82 376 -26 715 224 809 597 18 72 21
103 16 215 -6 144 -21 204 -79 319 l-35 70 62 74 c225 268 321 606 270 945
-18 123 -51 221 -124 373 l-59 121 72 6 c177 13 285 107 286 247 0 51 -17 90
-229 542 -126 268 -239 501 -250 517 -31 44 -114 81 -179 81 -84 0 -190 -60
-252 -143 l-28 -38 -37 55 c-64 97 -162 171 -275 208 -58 19 -94 22 -330 26
l-265 4 -34 30 c-64 57 -74 58 -400 58 -347 0 -375 -5 -455 -85 -79 -80 -90
-116 -94 -302 -4 -191 7 -245 68 -321 28 -36 58 -60 107 -84 l68 -33 295 0
c327 0 357 5 415 65 l29 30 131 0 132 0 168 -500 c213 -636 214 -589 -7 -807
-161 -159 -196 -178 -333 -178 -87 0 -107 3 -157 27 -97 45 -181 141 -202 230
-5 23 -2 27 24 33 56 12 147 82 189 146 125 187 51 440 -157 537 l-57 27 -517
5 -517 5 29 43 c16 24 40 69 52 100 l23 57 3 669 c3 645 2 672 -18 750 -43
173 -163 303 -338 369 -56 21 -69 22 -642 24 -450 1 -597 -1 -637 -11z m1269
-174 c132 -65 205 -179 215 -339 l6 -83 -873 0 -872 0 4 93 c3 74 10 103 32
149 48 101 147 182 253 207 21 5 292 9 603 8 l565 -2 67 -33z m216 -1084 c-3
-501 -3 -514 -25 -560 -30 -66 -95 -132 -156 -159 l-52 -24 -630 0 c-596 0
-633 1 -679 19 -63 24 -130 86 -164 151 l-27 50 -3 518 -3 517 871 0 871 0 -3
-512z m1912 193 c72 -27 124 -66 164 -120 19 -25 79 -140 135 -256 55 -115
109 -220 120 -232 13 -16 31 -23 53 -23 32 0 36 -4 63 -60 26 -54 27 -61 13
-77 -39 -44 -38 -47 166 -472 238 -493 249 -527 249 -756 0 -129 -4 -163 -26
-247 -41 -156 -123 -316 -216 -420 l-42 -47 -76 60 c-169 134 -371 194 -573
170 -115 -14 -177 -34 -285 -89 -73 -37 -107 -64 -180 -137 -92 -93 -139 -161
-180 -262 l-24 -58 -200 -3 c-111 -1 -291 -1 -401 0 l-200 3 36 50 c92 130 96
159 92 655 -3 404 -4 416 -26 471 -12 31 -40 82 -62 113 l-39 56 223 0 223 0
19 -62 c48 -158 196 -300 359 -343 77 -20 207 -19 276 1 109 32 168 72 311
214 166 164 199 221 206 355 4 81 4 83 -97 386 -189 569 -269 793 -287 806
-13 9 -59 13 -161 13 l-143 0 0 165 0 164 113 4 c207 7 339 0 397 -22z m-2645
-3042 c24 -6 63 -27 86 -47 123 -106 100 -301 -45 -368 -153 -71 -319 31 -319
197 0 103 58 184 155 214 54 17 69 18 123 4z m2863 -20 c54 -27 97 -84 111
-149 40 -184 -143 -326 -315 -246 -145 67 -168 262 -44 368 71 61 157 70 248
27z"/>
<path d="M898 4210 c-56 -30 -81 -79 -86 -170 l-4 -77 -80 -6 c-62 -4 -88 -11
-117 -30 -57 -38 -71 -77 -71 -199 0 -88 4 -109 23 -142 30 -53 81 -78 172
-84 l73 -4 4 -78 c5 -92 28 -135 88 -169 37 -21 51 -22 150 -19 120 3 143 13
188 78 18 27 22 47 22 111 l0 79 58 0 c106 0 179 37 208 107 18 43 18 203 0
246 -29 70 -102 107 -208 107 l-58 0 0 79 c0 64 -4 84 -22 111 -45 66 -68 75
-191 78 -96 2 -117 -1 -149 -18z m212 -252 c7 -154 4 -151 158 -158 l117 -5 0
-65 0 -65 -117 -5 c-154 -7 -151 -4 -158 -158 l-5 -117 -67 -3 -66 -3 -4 116
c-3 114 -4 117 -31 141 -26 22 -36 24 -138 24 l-109 0 0 70 0 70 109 0 c102 0
112 2 138 24 27 24 28 27 31 141 l4 116 66 -3 67 -3 5 -117z"/>
<path d="M1400 2150 c-33 -33 -30 -75 6 -107 25 -23 28 -23 324 -23 296 0 299
0 324 23 36 32 39 74 6 107 -19 19 -33 20 -330 20 -297 0 -311 -1 -330 -20z"/>
<path d="M1203 1840 c-45 -18 -55 -72 -22 -114 l20 -26 419 0 c384 0 420 1
439 18 33 26 31 79 -3 109 l-27 23 -402 -1 c-221 0 -412 -4 -424 -9z"/>
</g>
</svg>
