<?xml version="1.0" encoding="utf-8"?>
<!-- Generator: Adobe Illustrator 24.0.0, SVG Export Plug-In . SVG Version: 6.00 Build 0)  -->
<svg version="1.1" id="Layer_1" xmlns="http://www.w3.org/2000/svg" xmlns:xlink="http://www.w3.org/1999/xlink" x="0px" y="0px"
	 viewBox="0 0 100 100" style="enable-background:new 0 0 100 100;" xml:space="preserve">
<style type="text/css">
	.st0{fill:#9E9E9E;}
	.st1{fill:#F46275;}
	.st2{fill:#707070;}
	.st3{fill:#CECECE;}
	.st4{fill:#63BCE7;}
	.st5{fill:#67DCEB;}
	.st6{fill:#6377E7;}
	.st7{fill:#F8AF23;}
	.st8{fill:#F87023;}
	.st9{fill:#F8D323;}
	.st10{fill:#3F3679;}
	.st11{fill:#DA4A54;}
	.st12{fill:#EEEBEE;}
</style>
<g>
	<path class="st0" d="M54.4,42h7.9v2.7h-7.9V42z"/>
	<circle class="st1" cx="74.1" cy="44.3" r="2.5"/>
	<circle class="st0" cx="37" cy="82.1" r="9.8"/>
	<g>
		<path class="st2" d="M31.2,82.1c0-4.7,3.4-8.7,7.8-9.6c-0.6-0.1-1.3-0.2-2-0.2c-5.4,0-9.8,4.4-9.8,9.8S31.6,92,37,92
			c0.7,0,1.4-0.1,2-0.2C34.5,90.8,31.2,86.9,31.2,82.1L31.2,82.1z"/>
	</g>
	<circle class="st2" cx="37" cy="82.1" r="5.5"/>
	<circle class="st0" cx="79.5" cy="82.1" r="9.8"/>
	<g>
		<path class="st3" d="M79.5,72.3c-0.7,0-1.4,0.1-2,0.2c4.5,0.9,7.8,4.9,7.8,9.6s-3.4,8.7-7.8,9.6c0.6,0.1,1.3,0.2,2,0.2
			c5.4,0,9.8-4.4,9.8-9.8S85,72.3,79.5,72.3L79.5,72.3z"/>
	</g>
	<circle class="st2" cx="79.5" cy="82.1" r="5.5"/>
	<path class="st4" d="M27.4,63.5h23.8l2.2,8c0.7,2.7,3.1,4.5,5.9,4.5h4.2c2.1,0,3.9-1.3,4.7-3.2l0.3-0.9c0.7-1.8,0.8-3.7,0.3-5.6
		l-4.8-18.6h6.6l6.6,21c2.1,6.7-2.9,13.4-9.9,13.4H26.2c-4,0-6.5-4.3-4.6-7.8L27.4,63.5z"/>
	<g>
		<path class="st5" d="M77.1,68.7l-6.6-21h-4l6.6,21c2.1,6.7-2.9,13.4-9.9,13.4h4C74.2,82.1,79.2,75.3,77.1,68.7z"/>
	</g>
	<g>
		<path class="st6" d="M25.5,74.3l5.9-10.8h-4l-5.9,10.8c-1.9,3.5,0.6,7.8,4.6,7.8h4C26.2,82.1,23.6,77.9,25.5,74.3L25.5,74.3z"/>
	</g>
	<path class="st0" d="M51.3,63.5H24.4c-0.4,0-0.6-0.4-0.4-0.7l0.6-1c1.1-1.9,3.2-3.1,5.4-3.1h19c1.2,0,2.2,1,2.2,2.2L51.3,63.5
		L51.3,63.5z"/>
	<g>
		<path class="st2" d="M28,62.8l0.6-1c1.1-1.9,3.2-3.1,5.4-3.1h-4c-2.2,0-4.3,1.2-5.4,3.1l-0.6,1c-0.2,0.3,0,0.7,0.4,0.7h4
			C28.1,63.5,27.9,63.1,28,62.8z"/>
	</g>
	<path class="st7" d="M34.2,69.2c-5,0-9.6,2.1-12.8,5.4c-1.6,3.4,0.9,7.5,4.8,7.5h25.2C49.2,74.7,42.3,69.2,34.2,69.2z"/>
	<g>
		<path class="st8" d="M27.6,81.4c-3.1-1.7-3.2-6.1-0.5-8.3c2.6-2,5.7-3.4,9.1-3.8c-0.7-0.1-1.3-0.1-2-0.1c-5,0-9.6,2.1-12.8,5.4
			c-1.6,3.4,0.9,7.5,4.8,7.5h4C29.2,82.1,28.3,81.9,27.6,81.4z"/>
	</g>
	<path class="st7" d="M67.2,82.1c0-6.8,5.5-12.3,12.3-12.3s12.3,5.5,12.3,12.3H67.2z"/>
	<g>
		<path class="st9" d="M79.5,69.8c-0.7,0-1.4,0.1-2,0.2c5.9,1,10.3,6,10.3,12.2h4C91.9,75.3,86.3,69.8,79.5,69.8z"/>
	</g>
	<path class="st7" d="M74.1,47.7H62.8c-1.6,0-2.9-1.3-2.9-2.9v-1.1c0-1.6,1.3-2.9,2.9-2.9h11.3V47.7z"/>
	<g>
		<path class="st9" d="M70,40.9h4v6.8h-4V40.9z"/>
	</g>
	<g>
		<path class="st7" d="M43.1,58.7H10.7C9.8,58.7,9,57.9,9,57v-6.5c0-0.9,0.8-1.7,1.7-1.7s1.7,0.8,1.7,1.7v4.8h30.7
			c0.9,0,1.7,0.8,1.7,1.7C44.8,57.9,44.1,58.7,43.1,58.7L43.1,58.7z"/>
	</g>
	<g>
		<path class="st8" d="M13,57v-1.7h-0.6v-4.8c0-0.9-0.8-1.7-1.7-1.7c-0.9,0-1.7,0.8-1.7,1.7V57c0,0.9,0.8,1.7,1.7,1.7h4
			C13.8,58.7,13,57.9,13,57z"/>
	</g>
	<path class="st0" d="M12.4,36.7h28.2v18.6H12.4L12.4,36.7z"/>
	<g>
		<path class="st2" d="M12.4,36.7h4v18.6h-4V36.7z"/>
	</g>
	<path class="st7" d="M54.4,22.8h37.5v12.6H54.4V22.8z"/>
	<path class="st10" d="M13.7,37.5l-1.8,11c-0.3-0.2-0.7-0.3-1.1-0.3c-1.3,0-2.3,1-2.3,2.3V57c0,1.3,1,2.3,2.3,2.3h0h15.6
		c-0.9,0.6-1.6,1.3-2.1,2.2l-0.6,1c-0.2,0.3-0.2,0.7,0,1c0.2,0.3,0.5,0.5,0.9,0.5h2l-5.4,10c-1,1.8-1,4,0.1,5.8
		c1.1,1.8,2.9,2.9,5,2.9h0h0.4c0.2,3.8,2.5,7,5.7,8.7H11.1c-0.3,0-0.6,0.3-0.6,0.6c0,0.3,0.3,0.6,0.6,0.6h77.8
		c0.3,0,0.6-0.3,0.6-0.6c0-0.3-0.3-0.6-0.6-0.6h-4.6c3.2-1.6,5.5-4.9,5.7-8.7h1.9c0.3,0,0.6-0.3,0.6-0.6c0-7.1-5.8-12.9-12.9-12.9
		c-0.6,0-1.1,0-1.7,0.1c-0.1-0.3-0.1-0.5-0.2-0.8l-6.4-20.3h2.8c0.3,0,0.6-0.3,0.6-0.6v-0.4c1.4-0.3,2.5-1.5,2.5-3
		c0-1.5-1.1-2.7-2.5-3v-0.4c0-0.3-0.3-0.6-0.6-0.6H62.8c-1,0-1.9,0.4-2.5,1.1h-5.9c-0.3,0-0.6,0.3-0.6,0.6v2.7
		c0,0.3,0.3,0.6,0.6,0.6h5c0.2,1.7,1.7,3,3.4,3h0.7l4.7,18.2c0.4,1.7,0.4,3.5-0.3,5.2l-0.3,0.9c-0.6,1.7-2.3,2.9-4.1,2.9h-4.2
		c-2.5,0-4.7-1.7-5.3-4.1l-2.1-7.9v-2.5c0-1.5-1.2-2.8-2.8-2.8h-4c0.2-0.3,0.3-0.7,0.3-1.1c0-1.3-1-2.3-2.3-2.3h-2L38,37.2
		 M22.3,79.5h16.6c0.3,0,0.6-0.3,0.6-0.6c0-0.3-0.3-0.6-0.6-0.6H21.7c-0.4-1.1-0.3-2.3,0.2-3.4c0,0,0,0,0,0
		c3.3-3.3,7.6-5.1,12.3-5.1c7.4,0,14,4.8,16.4,11.7H26.2C24.6,81.5,23.2,80.8,22.3,79.5L22.3,79.5z M41.9,82.7
		c-0.3,2.5-2.4,4.4-4.9,4.4c-2.5,0-4.6-1.9-4.9-4.4H41.9z M27.7,82.7h3.2c0.3,3.1,2.9,5.5,6,5.5c3.2,0,5.8-2.4,6-5.5h3.2
		c-0.3,4.8-4.4,8.7-9.2,8.7C32.1,91.4,28,87.5,27.7,82.7L27.7,82.7z M41.7,91.4c3.2-1.6,5.5-4.9,5.7-8.7h3.9h15.9h0.1h1.9
		c0.2,3.8,2.5,7,5.7,8.7H41.7z M79.5,91.4c-4.9,0-8.9-3.9-9.2-8.7h3.2c0.3,3.1,2.9,5.5,6,5.5c3.2,0,5.8-2.4,6-5.5h3.2
		C88.5,87.5,84.4,91.4,79.5,91.4L79.5,91.4z M74.6,82.7h9.8c-0.3,2.5-2.4,4.4-4.9,4.4C77,87.1,74.9,85.1,74.6,82.7z M90.7,78.4h-2
		c-0.3,0-0.6,0.3-0.6,0.6c0,0.3,0.3,0.6,0.6,0.6H91c0.2,0.7,0.3,1.3,0.3,2.1H67.8c0-0.7,0.1-1.4,0.3-2.1h17c0.3,0,0.6-0.3,0.6-0.6
		c0-0.3-0.3-0.6-0.6-0.6H68.4c1.6-4.6,6-8,11.1-8S89.1,73.7,90.7,78.4L90.7,78.4z M76,44.3c0,0.9-0.6,1.6-1.3,1.8v-3.6
		C75.4,42.7,76,43.4,76,44.3z M55,42.6h4.6c-0.1,0.4-0.2,0.8-0.2,1.2v0.4H55L55,42.6L55,42.6z M60.5,44.8v-1.1c0-1.3,1-2.3,2.3-2.3
		h10.7v2.3H62c-0.3,0-0.6,0.3-0.6,0.6c0,0.3,0.3,0.6,0.6,0.6h11.5v2.3h-3h-6.6h-1.1C61.5,47.1,60.5,46.1,60.5,44.8L60.5,44.8z
		 M59.3,76.6h4.2c2.3,0,4.4-1.5,5.2-3.6l0.3-0.9c0.7-1.9,0.8-3.9,0.3-5.9l-4.6-17.9h5.4l6.5,20.6c0.1,0.2,0.1,0.4,0.2,0.7
		c-4.7,1-8.4,4.6-9.7,9.3c0,0,0,0,0,0c-0.2,0.9-0.4,1.8-0.4,2.7H51.7c-2.4-7.6-9.6-12.9-17.6-12.9c-3.9,0-7.7,1.2-10.8,3.5l4.4-8.1
		h23l2,7.6C53.6,74.5,56.3,76.6,59.3,76.6L59.3,76.6z M50.6,60.5H38.3c-0.3,0-0.6,0.3-0.6,0.6c0,0.3,0.3,0.6,0.6,0.6h12.4v1.3H27.4
		h-2.8l0.5-0.9c1-1.7,2.9-2.8,4.9-2.8h13.1h5.9C49.8,59.3,50.5,59.8,50.6,60.5z M9.6,50.4c0-0.6,0.5-1.1,1.1-1.1
		c0.6,0,1.1,0.5,1.1,1.1v4.8c0,0.3,0.3,0.6,0.6,0.6h30.7c0.6,0,1.1,0.5,1.1,1.1c0,0.6-0.5,1.1-1.1,1.1H30.1H10.7
		c-0.6,0-1.1-0.5-1.1-1.1L9.6,50.4z"/>
	<path class="st10" d="M45.1,78.4h-2.5c-0.3,0-0.6,0.3-0.6,0.6c0,0.3,0.3,0.6,0.6,0.6h2.5c0.3,0,0.6-0.3,0.6-0.6
		C45.7,78.6,45.4,78.4,45.1,78.4z"/>
	<path class="st10" d="M11.1,95.9h-7c-0.3,0-0.6,0.3-0.6,0.6S3.8,97,4.1,97h7c0.3,0,0.6-0.3,0.6-0.6S11.4,95.9,11.1,95.9z"/>
	<path class="st10" d="M95.9,95.9h-7c-0.3,0-0.6,0.3-0.6,0.6s0.3,0.6,0.6,0.6h7c0.3,0,0.6-0.3,0.6-0.6S96.2,95.9,95.9,95.9z"/>
	<path class="st10" d="M83.3,95.9H16.7c-0.3,0-0.6,0.3-0.6,0.6s0.3,0.6,0.6,0.6h66.5c0.3,0,0.6-0.3,0.6-0.6S83.6,95.9,83.3,95.9z"/>
	<path class="st10" d="M4.1,92.5h3c0.3,0,0.6-0.3,0.6-0.6s-0.3-0.6-0.6-0.6h-3c-0.3,0-0.6,0.3-0.6,0.6S3.8,92.5,4.1,92.5z"/>
	<path class="st10" d="M92.9,92.5h3c0.3,0,0.6-0.3,0.6-0.6s-0.3-0.6-0.6-0.6h-3c-0.3,0-0.6,0.3-0.6,0.6S92.6,92.5,92.9,92.5z"/>
	<path class="st10" d="M54.4,36h37.5c0.3,0,0.6-0.3,0.6-0.6V22.8c0-0.3-0.3-0.6-0.6-0.6H54.4c-0.3,0-0.6,0.3-0.6,0.6v12.6
		C53.8,35.8,54.1,36,54.4,36z M55,23.4h36.3v11.5H55V23.4z"/>
	<g>
		<path class="st10" d="M66.4,25.7v0.8c0,0.2-0.2,0.3-0.3,0.3h-2.5c-0.2,0-0.3,0.2-0.3,0.3v1c0,0.2,0.2,0.3,0.3,0.3h1.7
			c0.2,0,0.3,0.2,0.3,0.3v0.7c0,0.2-0.2,0.3-0.3,0.3h-1.7c-0.2,0-0.3,0.2-0.3,0.3v2.4c0,0.2-0.2,0.3-0.3,0.3h-1.2
			c-0.2,0-0.3-0.2-0.3-0.3v-7c0-0.2,0.2-0.3,0.3-0.3H66C66.2,25.3,66.4,25.5,66.4,25.7L66.4,25.7z"/>
		<path class="st10" d="M71.5,33c-0.1,0-0.2-0.1-0.3-0.2l-1.6-2.7h-0.4v2.6c0,0.2-0.2,0.3-0.3,0.3h-1.2c-0.2,0-0.3-0.2-0.3-0.3v-7
			c0-0.2,0.2-0.3,0.3-0.3h2.8c0.6,0,1.1,0.1,1.5,0.3c0.4,0.2,0.7,0.5,0.9,0.9c0.2,0.4,0.3,0.8,0.3,1.3c0,0.6-0.2,1-0.5,1.4
			c-0.2,0.3-0.6,0.5-1,0.7c-0.2,0.1-0.3,0.3-0.2,0.5l1.3,2.1c0.1,0.2,0,0.5-0.3,0.5H71.5z M69.2,28.5c0,0.2,0.2,0.3,0.3,0.3h0.8
			c0.4,0,0.6-0.1,0.8-0.2c0.2-0.2,0.3-0.4,0.3-0.7c0-0.3-0.1-0.5-0.3-0.7c-0.2-0.2-0.4-0.3-0.8-0.3h-0.8c-0.2,0-0.3,0.2-0.3,0.3
			L69.2,28.5L69.2,28.5z"/>
		<path class="st10" d="M76.1,27.1v0.9c0,0.2,0.2,0.3,0.3,0.3h1.9c0.2,0,0.3,0.2,0.3,0.3v0.7c0,0.2-0.2,0.3-0.3,0.3h-1.9
			c-0.2,0-0.3,0.2-0.3,0.3v1c0,0.2,0.2,0.3,0.3,0.3h2.2c0.2,0,0.3,0.2,0.3,0.3v0.8c0,0.2-0.2,0.3-0.3,0.3h-4.1
			c-0.2,0-0.3-0.2-0.3-0.3v-7c0-0.2,0.2-0.3,0.3-0.3h4.1c0.2,0,0.3,0.2,0.3,0.3v0.8c0,0.2-0.2,0.3-0.3,0.3h-2.2
			C76.3,26.8,76.1,26.9,76.1,27.1L76.1,27.1z"/>
		<path class="st10" d="M82,27.1v0.9c0,0.2,0.2,0.3,0.3,0.3h1.9c0.2,0,0.3,0.2,0.3,0.3v0.7c0,0.2-0.2,0.3-0.3,0.3h-1.9
			c-0.2,0-0.3,0.2-0.3,0.3v1c0,0.2,0.2,0.3,0.3,0.3h2.2c0.2,0,0.3,0.2,0.3,0.3v0.8c0,0.2-0.2,0.3-0.3,0.3h-4.1
			c-0.2,0-0.3-0.2-0.3-0.3v-7c0-0.2,0.2-0.3,0.3-0.3h4.1c0.2,0,0.3,0.2,0.3,0.3v0.8c0,0.2-0.2,0.3-0.3,0.3h-2.2
			C82.1,26.8,82,26.9,82,27.1L82,27.1z"/>
	</g>
	<g>
		<path class="st11" d="M34.5,33.3c-0.3,0-0.6-0.3-0.6-0.6c0-1.1-0.1-2.3-0.2-3.4c-0.1-0.5-0.4-0.9-0.9-0.9c-4-0.3-8-0.3-11.9,0
			c-0.5,0-0.9,0.4-0.9,0.9c-0.1,1.1-0.2,2.3-0.2,3.4c0,0.3-0.3,0.6-0.6,0.6c-0.3,0-0.6-0.3-0.6-0.6c0-1.2,0.1-2.4,0.2-3.5
			c0.1-1.1,1-1.9,2.1-2c4-0.3,8.1-0.3,12.1,0c1.1,0.1,2,0.9,2.1,2c0.1,1.2,0.2,2.4,0.2,3.5C35.1,33,34.8,33.3,34.5,33.3
			C34.5,33.3,34.5,33.3,34.5,33.3L34.5,33.3z"/>
		<path class="st12" d="M38.2,32.5c-7.7-0.6-15.3-0.6-23,0c-1.5,0.1-2.7,1.3-2.9,2.8c-0.6,5.8-0.6,11.6,0,17.4
			c0.2,1.5,1.4,2.7,2.9,2.8c7.7,0.6,15.3,0.6,23,0c1.5-0.1,2.7-1.3,2.9-2.8c0.6-5.8,0.6-11.6,0-17.4C40.9,33.8,39.7,32.6,38.2,32.5z
			"/>
		<path class="st11" d="M32.5,41.8h-3.6v-3.6h-4.4v3.6h-3.6v4.4h3.6v3.6h4.4v-3.6h3.6V41.8z"/>
	</g>
</g>
</svg>
